<svg width="29" height="28" viewBox="0 0 29 28" fill="none" xmlns="http://www.w3.org/2000/svg">
<ellipse cx="14.5" cy="14" rx="14.5" ry="14" fill="white"/>
<mask id="mask0" mask-type="alpha" maskUnits="userSpaceOnUse" x="5" y="4" width="19" height="20">
<path d="M5.40002 4.83331H23.7333V23.1666H5.40002V4.83331Z" fill="#1F7AA0"/>
</mask>
<g mask="url(#mask0)">
<path fill-rule="evenodd" clip-rule="evenodd" d="M14.5835 6.54972C14.5836 6.54931 14.5836 6.54891 14.5836 6.54842C13.2947 6.54842 12.0039 6.50784 10.7176 6.56651C10.1209 6.59372 9.49211 6.72254 8.94944 6.96536C7.66586 7.53964 7.15758 8.6825 7.13493 10.0045C7.08954 12.663 7.09899 15.3231 7.13876 17.9817C7.14707 18.5344 7.30164 19.1222 7.53411 19.627C8.13006 20.921 9.28539 21.415 10.6218 21.4357C13.2534 21.4764 15.8869 21.4899 18.5179 21.434C20.6504 21.3889 21.9495 20.1029 21.9985 17.9748C22.0593 15.3305 22.0352 12.6834 21.996 10.0383C21.9878 9.48509 21.8376 8.89704 21.6073 8.39128C21.0011 7.0602 19.8172 6.59918 18.4501 6.55803C17.1623 6.51933 15.8724 6.54972 14.5835 6.54972ZM23.7334 10.7V17.3C23.7078 17.5543 23.6715 17.8081 23.6584 18.0631C23.5143 20.8529 21.8727 22.654 19.1124 23.0372C18.6992 23.0946 18.2821 23.1243 17.8667 23.1666H11.2667C11.0132 23.1411 10.7602 23.1041 10.506 23.0918C7.72779 22.9572 5.9092 21.3023 5.5273 18.5484C5.46985 18.1343 5.44174 17.7162 5.40002 17.3V10.7C5.42561 10.4457 5.46252 10.1919 5.47499 9.93699C5.61049 7.15831 7.26603 5.34062 10.0207 4.96018C10.434 4.90306 10.8513 4.87487 11.2667 4.83331H17.8667C18.1202 4.8589 18.3732 4.89581 18.6273 4.90819C21.407 5.0428 23.2279 6.70111 23.6035 9.45185C23.66 9.8661 23.6907 10.2839 23.7334 10.7Z" fill="#1F7AA0"/>
</g>
<path fill-rule="evenodd" clip-rule="evenodd" d="M17.8238 14.1807C17.8277 12.469 16.4547 11.0861 14.7475 11.0823C13.0359 11.0785 11.6529 12.4516 11.6491 14.1587C11.6453 15.8705 13.0183 17.2533 14.7255 17.2571C16.437 17.2609 17.82 15.8877 17.8238 14.1807ZM19.4895 14.1931C19.4832 16.8351 17.3605 18.9321 14.7024 18.9228C12.0637 18.9135 9.97079 16.7857 9.98339 14.1253C9.99584 11.506 12.1146 9.41276 14.7498 9.41663C17.3946 9.42042 19.4959 11.538 19.4895 14.1931Z" fill="#1F7AA0"/>
<path fill-rule="evenodd" clip-rule="evenodd" d="M20.3382 9.22591C20.3466 9.7908 19.8835 10.2645 19.3219 10.2654C18.7828 10.2663 18.3119 9.80352 18.3015 9.26264C18.2907 8.7046 18.7613 8.22832 19.3232 8.22839C19.8722 8.22839 20.3301 8.67848 20.3382 9.22591Z" fill="#1F7AA0"/>
</svg>
