<svg width="29" height="28" viewBox="0 0 29 28" fill="none" xmlns="http://www.w3.org/2000/svg">
<ellipse cx="14.5" cy="14" rx="14.5" ry="14" fill="white"/>
<mask id="mask0" mask-type="alpha" maskUnits="userSpaceOnUse" x="5" y="7" width="18" height="15">
<path d="M5.83356 7.33331H22.9103V21.029H5.83356V7.33331Z" fill="#1F7AA0"/>
</mask>
<g mask="url(#mask0)">
<path fill-rule="evenodd" clip-rule="evenodd" d="M22.9105 9.10918C22.2912 9.38538 21.7692 9.39451 21.2153 9.12136C21.9298 8.69375 21.9625 8.39397 22.2204 7.58592C21.5524 7.98233 20.812 8.26994 20.0245 8.42592C19.3945 7.75407 18.4952 7.33331 17.5015 7.33331C15.5917 7.33331 14.0441 8.88244 14.0441 10.7907C14.0441 11.0623 14.0745 11.3264 14.1331 11.579C11.2593 11.4352 8.71193 10.0587 7.00682 7.96636C6.70932 8.4769 6.53812 9.07114 6.53812 9.70494C6.53812 10.9048 7.1491 11.9624 8.0766 12.5826C7.50975 12.5643 6.97714 12.4091 6.51073 12.1504C6.50997 12.1648 6.50997 12.1785 6.50997 12.1937C6.50997 13.8692 7.70225 15.2661 9.2841 15.5842C8.77736 15.7219 8.24323 15.7432 7.72204 15.6435C8.16258 17.0169 9.43932 18.0167 10.9519 18.0448C9.4728 19.2044 7.63834 19.6876 5.83356 19.476C7.36367 20.4568 9.18062 21.029 11.133 21.029C17.4931 21.029 20.9695 15.7607 20.9695 11.1917C20.9695 11.0418 20.9673 10.8934 20.9604 10.7443C21.6353 10.2573 22.4471 9.8031 22.9105 9.10918Z" fill="#1F7AA0"/>
</g>
</svg>
