<svg width="28" height="28" viewBox="0 0 28 28" fill="none" xmlns="http://www.w3.org/2000/svg">
<circle cx="14" cy="14" r="14" fill="white"/>
<g clip-path="url(#clip0)">
<path d="M23.8216 18.4726C23.7679 18.3825 23.4353 17.66 21.8352 16.1749C20.1601 14.6198 20.3851 14.8723 22.4028 12.1833C23.6316 10.5457 24.1229 9.54564 23.9691 9.11811C23.8229 8.71058 22.919 8.81808 22.919 8.81808L19.9138 8.83559C19.9138 8.83559 19.6913 8.80558 19.525 8.90434C19.3638 9.00185 19.26 9.22686 19.26 9.22686C19.26 9.22686 18.7837 10.4945 18.1487 11.572C16.8098 13.846 16.2735 13.966 16.0548 13.8247C15.546 13.4959 15.6735 12.5021 15.6735 11.7971C15.6735 9.59314 16.0073 8.67432 15.0222 8.43681C14.6947 8.35805 14.4547 8.30555 13.6183 8.2968C12.5458 8.28554 11.6369 8.30055 11.1232 8.55181C10.7806 8.71933 10.5169 9.09311 10.6781 9.11436C10.8769 9.14061 11.3269 9.23562 11.5657 9.56064C11.8745 9.97942 11.8632 10.922 11.8632 10.922C11.8632 10.922 12.0407 13.5159 11.4494 13.8385C11.0432 14.0597 10.4869 13.6084 9.29302 11.5445C8.68173 10.4882 8.21919 9.31937 8.21919 9.31937C8.21919 9.31937 8.13044 9.10186 7.97167 8.9856C7.77916 8.84434 7.50914 8.79933 7.50914 8.79933L4.65143 8.81683C4.65143 8.81683 4.22264 8.82934 4.06513 9.0156C3.92512 9.18186 4.05388 9.52439 4.05388 9.52439C4.05388 9.52439 6.29155 14.7585 8.82424 17.3975C11.1482 19.8164 13.7859 19.6576 13.7859 19.6576H14.9809C14.9809 19.6576 15.3422 19.6176 15.526 19.4189C15.696 19.2364 15.6898 18.8938 15.6898 18.8938C15.6898 18.8938 15.666 17.29 16.4111 17.0537C17.1449 16.8212 18.0874 18.6038 19.0863 19.2901C19.8413 19.8089 20.4151 19.6951 20.4151 19.6951L23.0866 19.6576C23.0866 19.6576 24.4842 19.5714 23.8216 18.4726Z" fill="#1F7AA0"/>
</g>
<defs>
<clipPath id="clip0">
<rect x="4" y="4" width="20" height="20" fill="white"/>
</clipPath>
</defs>
</svg>
