<svg width="28" height="28" viewBox="0 0 28 28" fill="none" xmlns="http://www.w3.org/2000/svg">
<circle cx="14" cy="14" r="14" fill="white"/>
<mask id="mask0" mask-type="alpha" maskUnits="userSpaceOnUse" x="4" y="7" width="20" height="14">
<path d="M4.83331 7.33331H23.1666V20.0869H4.83331V7.33331Z" fill="#1F7AA0"/>
</mask>
<g mask="url(#mask0)">
<path fill-rule="evenodd" clip-rule="evenodd" d="M12.1843 16.4438V11.0892C13.7686 11.9839 15.2954 12.8461 16.9173 13.762C15.3258 14.6637 13.7913 15.5332 12.1843 16.4438ZM22.87 9.87228C22.6525 8.4448 21.9081 7.74531 20.4575 7.61743C16.1565 7.23831 11.8532 7.23927 7.5521 7.61633C6.07721 7.74558 5.3295 8.46767 5.11487 9.92814C4.74467 12.4467 4.7393 14.9685 5.10014 17.489C5.33171 19.1061 6.06083 19.7597 7.70988 19.9428C9.79122 20.1739 11.8778 20.0259 13.9615 20.0869C16.1139 20.0307 18.2702 20.1815 20.4188 19.9304C21.9083 19.7563 22.6507 19.0955 22.8733 17.6315C23.266 15.0468 23.2639 12.4565 22.87 9.87228Z" fill="#1F7AA0"/>
</g>
</svg>
