<svg width="21" height="21" viewBox="0 0 21 21" fill="none" xmlns="http://www.w3.org/2000/svg">
<circle cx="10.5" cy="10.5" r="10.5" fill="white"/>
<path d="M15.8288 8.54326L15.4684 8.18028C15.3549 8.06692 15.204 8.00447 15.0427 8.00447C14.8814 8.00447 14.7303 8.06692 14.6169 8.18028L10.5048 12.2925L6.38804 8.17572C6.27477 8.06236 6.12365 8 5.96243 8C5.8012 8 5.65 8.06236 5.53664 8.17572L5.17608 8.53646C4.94131 8.77105 4.94131 9.15318 5.17608 9.38777L10.0776 14.3069C10.1909 14.4202 10.3418 14.5 10.5045 14.5H10.5063C10.6677 14.5 10.8186 14.4201 10.9319 14.3069L15.8288 9.4011C15.9423 9.28783 16.0045 9.13233 16.0047 8.97111C16.0047 8.80979 15.9423 8.65644 15.8288 8.54326Z" fill="black"/>
</svg>
