<svg width="29" height="28" viewBox="0 0 29 28" fill="none" xmlns="http://www.w3.org/2000/svg">
<ellipse cx="14.5" cy="14" rx="14.5" ry="14" fill="white" fill-opacity="0.9"/>
<mask id="mask0" mask-type="alpha" maskUnits="userSpaceOnUse" x="5" y="4" width="20" height="20">
<path d="M5.83331 4.8335H24.1666V23.1668H5.83331V4.8335Z" fill="#1F7AA0"/>
</mask>
<g mask="url(#mask0)">
<path fill-rule="evenodd" clip-rule="evenodd" d="M15.0168 6.5499C15.0168 6.5495 15.0168 6.54909 15.0169 6.5486C13.728 6.5486 12.4371 6.50802 11.1509 6.56669C10.5542 6.5939 9.92539 6.72273 9.38273 6.96554C8.09915 7.53982 7.59087 8.68268 7.56822 10.0047C7.52283 12.6632 7.53228 15.3233 7.57205 17.9819C7.58036 18.5346 7.73493 19.1224 7.96739 19.6272C8.56335 20.9212 9.71868 21.4151 11.0551 21.4358C13.6867 21.4766 16.3202 21.4901 18.9512 21.4342C21.0837 21.3891 22.3828 20.1031 22.4318 17.975C22.4926 15.3307 22.4685 12.6836 22.4293 10.0385C22.4211 9.48527 22.2709 8.89722 22.0406 8.39147C21.4344 7.06038 20.2505 6.59936 18.8834 6.55821C17.5956 6.51951 16.3057 6.5499 15.0168 6.5499ZM24.1666 10.7002V17.3002C24.1411 17.5545 24.1048 17.8083 24.0917 18.0632C23.9475 20.8531 22.306 22.6541 19.5457 23.0374C19.1325 23.0948 18.7154 23.1245 18.3 23.1668H11.7C11.4465 23.1413 11.1935 23.1043 10.9393 23.092C8.16108 22.9573 6.34249 21.3025 5.96059 18.5485C5.90314 18.1345 5.87503 17.7164 5.83331 17.3002V10.7002C5.8589 10.4459 5.89581 10.1921 5.90828 9.93717C6.04378 7.15849 7.69932 5.3408 10.454 4.96036C10.8673 4.90324 11.2846 4.87505 11.7 4.8335H18.3C18.5535 4.85908 18.8065 4.89599 19.0606 4.90838C21.8403 5.04298 23.6612 6.7013 24.0368 9.45203C24.0933 9.86628 24.1239 10.284 24.1666 10.7002Z" fill="#1F7AA0"/>
</g>
<path fill-rule="evenodd" clip-rule="evenodd" d="M18.2571 14.1811C18.261 12.4694 16.888 11.0865 15.1808 11.0826C13.4692 11.0788 12.0862 12.452 12.0824 14.1591C12.0786 15.8708 13.4516 17.2536 15.1588 17.2574C16.8703 17.2612 18.2533 15.8881 18.2571 14.1811ZM19.9228 14.1935C19.9164 16.8354 17.7938 18.9324 15.1357 18.9231C12.4969 18.9138 10.4041 16.7861 10.4167 14.1257C10.4291 11.5063 12.5479 9.41312 15.183 9.417C17.8279 9.42079 19.9292 11.5384 19.9228 14.1935Z" fill="#1F7AA0"/>
<path fill-rule="evenodd" clip-rule="evenodd" d="M20.7715 9.22603C20.7798 9.79092 20.3167 10.2646 19.7552 10.2656C19.2161 10.2664 18.7452 9.80364 18.7347 9.26277C18.724 8.70473 19.1946 8.22844 19.7565 8.22852C20.3054 8.22852 20.7634 8.67861 20.7715 9.22603Z" fill="#1F7AA0"/>
</svg>
