<svg width="29" height="28" viewBox="0 0 29 28" fill="none" xmlns="http://www.w3.org/2000/svg">
<ellipse cx="14.5" cy="14" rx="14.5" ry="14" fill="white" fill-opacity="0.9"/>
<mask id="mask0" mask-type="alpha" maskUnits="userSpaceOnUse" x="5" y="7" width="18" height="15">
<path d="M5.83356 7.3335H22.9103V21.0291H5.83356V7.3335Z" fill="#1F7AA0"/>
</mask>
<g mask="url(#mask0)">
<path fill-rule="evenodd" clip-rule="evenodd" d="M22.9105 9.10937C22.2912 9.38556 21.7692 9.39469 21.2153 9.12154C21.9298 8.69393 21.9625 8.39415 22.2204 7.5861C21.5524 7.98252 20.812 8.27013 20.0245 8.4261C19.3945 7.75426 18.4952 7.3335 17.5015 7.3335C15.5917 7.3335 14.0441 8.88263 14.0441 10.7909C14.0441 11.0625 14.0745 11.3265 14.1331 11.5791C11.2593 11.4353 8.71193 10.0589 7.00682 7.96654C6.70932 8.47708 6.53812 9.07132 6.53812 9.70513C6.53812 10.905 7.1491 11.9626 8.0766 12.5827C7.50975 12.5645 6.97714 12.4093 6.51073 12.1506C6.50997 12.165 6.50997 12.1787 6.50997 12.1939C6.50997 13.8694 7.70225 15.2663 9.2841 15.5844C8.77736 15.7221 8.24323 15.7434 7.72204 15.6437C8.16258 17.0171 9.43932 18.0169 10.9519 18.045C9.4728 19.2046 7.63834 19.6877 5.83356 19.4762C7.36367 20.457 9.18062 21.0291 11.133 21.0291C17.4931 21.0291 20.9695 15.7609 20.9695 11.1919C20.9695 11.042 20.9673 10.8936 20.9604 10.7445C21.6353 10.2575 22.4471 9.80328 22.9105 9.10937Z" fill="#1F7AA0"/>
</g>
</svg>
