<svg width="103" height="103" viewBox="0 0 103 103" fill="none" xmlns="http://www.w3.org/2000/svg">
<path d="M22.3309 67.6242L18.0685 63.3627L4.02344 77.4078L29.6155 103L43.6606 88.9547L39.5648 84.859H76.1561L98.777 54.6966L84.302 43.8364L69.2401 63.9175C66.9486 58.5039 61.583 54.6958 55.3435 54.6958H35.2208L22.3309 67.6242ZM29.6155 94.4681L12.5552 77.4078L18.0685 71.8944L35.1289 88.9547L29.6155 94.4681ZM55.3435 60.7286C59.2766 60.7286 62.6312 63.2495 63.876 66.7614C61.7708 66.7614 46.6012 66.7614 44.4849 66.7614V72.7934H70.4251V72.2873L70.4754 72.325L85.5075 52.2825L90.3325 55.9028L73.1401 78.8262H36.6714L35.1139 80.4073L26.5963 71.8905L37.7252 60.7286H55.3435Z" fill="white"/>
<path d="M68.6153 12.0656C68.6153 5.41278 63.2033 0 56.5505 0C49.8977 0 44.4849 5.41278 44.4849 12.0656C44.4849 18.7184 49.8977 24.1304 56.5505 24.1304C63.2033 24.1304 68.6153 18.7184 68.6153 12.0656ZM56.5505 18.0976C53.2241 18.0976 50.5177 15.392 50.5177 12.0656C50.5177 8.73919 53.2241 6.0328 56.5505 6.0328C59.8769 6.0328 62.5833 8.73919 62.5833 12.0656C62.5833 15.392 59.8769 18.0976 56.5505 18.0976Z" fill="white"/>
<path d="M38.4521 42.6303V48.6631H74.6481V42.6303C74.6481 32.5914 66.5227 24.1304 56.5505 24.1304C46.5831 24.1304 38.4521 32.5874 38.4521 42.6303ZM56.5505 30.1632C63.0902 30.1632 68.6153 35.873 68.6153 42.6303H44.4849C44.4849 35.873 50.0101 30.1632 56.5505 30.1632Z" fill="white"/>
</svg>
