<svg width="103" height="103" viewBox="0 0 103 103" fill="none" xmlns="http://www.w3.org/2000/svg">
<path d="M91.4608 74.7764L88.7442 76.5048L91.2387 80.4237C91.5638 80.9338 91.7344 81.5229 91.7344 82.1264C91.7344 83.8742 90.3117 85.2968 88.4673 85.2968L88.5639 88.5156C92.0868 88.5156 94.9531 85.6493 94.9531 82.1264C94.9531 80.9097 94.6087 79.7236 93.9537 78.6952L91.4608 74.7764Z" fill="white"/>
<path d="M88.5156 58.1577L77.6459 75.238C76.3343 77.2996 75.6406 79.6815 75.6406 82.1261C75.6406 89.1993 81.3941 94.9529 88.5639 94.9529C95.6371 94.9529 101.391 89.1993 101.391 82.1261C101.391 79.6815 100.697 77.2996 99.3853 75.2396L88.5156 58.1577ZM88.4673 91.7341C83.1693 91.7341 78.8594 87.4242 78.8594 82.1261C78.8594 80.2947 79.3792 78.5115 80.3625 76.9665L88.5156 64.1542L96.6687 76.9681C97.6521 78.5115 98.1719 80.2947 98.1719 82.1261C98.1719 87.4242 93.862 91.7341 88.4673 91.7341Z" fill="white"/>
<path d="M61.1804 48.6949C63.1631 46.4305 64.375 43.474 64.375 40.2344C64.375 37.5274 63.5301 35.0152 62.0977 32.9407L77.2935 30.3544L81.1495 37.0156H83.6875V56.3281H93.3438V36.8418C97.916 35.9888 101.391 31.9767 101.391 27.1598C101.391 24.8327 100.562 22.5715 99.0586 20.7947L85.7781 5.0985C83.8999 2.88078 81.1592 1.60938 78.2542 1.60938H62.7656V5.26105L68.6286 15.3888L7.97606 24.9775C4.28737 25.5617 1.60938 28.6968 1.60938 32.4305V34.299C1.60938 38.4592 4.99389 41.8438 9.15413 41.8438C9.57739 41.8438 10.0007 41.8083 10.4207 41.7375L12.875 41.3191V49.8906H8.04688V62.7656H11.2656V85.2969H4.82812V98.1719H1.60938V101.391H101.391V98.1719H68.9504L61.1804 48.6949ZM30.5781 98.1719V85.2969H24.1406V62.7656H27.3594V49.8906H22.5312V39.6759L39.0901 36.8579C38.7956 37.9346 38.625 39.0644 38.625 40.2344C38.625 43.474 39.8369 46.4289 41.8196 48.6949L34.0109 98.1719H30.5781ZM51.5 49.8906C46.1746 49.8906 41.8438 45.5598 41.8438 40.2344C41.8438 34.909 46.1746 30.5781 51.5 30.5781C56.8254 30.5781 61.1562 34.909 61.1562 40.2344C61.1562 45.5598 56.8254 49.8906 51.5 49.8906ZM47.5586 74.0312H55.4414L55.9499 77.25H47.0517L47.5586 74.0312ZM48.0672 70.8125L50.8659 53.0772C51.0783 53.0885 51.286 53.1094 51.5 53.1094C51.714 53.1094 51.9233 53.0885 52.1341 53.0772L54.9328 70.8125H48.0672ZM44.6907 51.1411C45.621 51.7237 46.6236 52.2017 47.6922 52.5332L40.4903 98.1719H37.2699L44.6907 51.1411ZM46.5431 80.4688H56.4585L59.2524 98.1719H43.7492L46.5431 80.4688ZM55.3078 52.5332C56.3764 52.2017 57.379 51.7237 58.3093 51.1411L65.7301 98.1719H62.5097L55.3078 52.5332ZM86.9062 53.1094V37.0156H90.125V53.1094H86.9062ZM78.2542 4.82812C80.2096 4.82812 82.0556 5.68431 83.319 7.17781L96.6011 22.874C97.6134 24.0714 98.1719 25.5939 98.1719 27.1614C98.1719 30.8195 95.1945 33.7969 91.5364 33.7969H83.0067L66.2338 4.82812H78.2542ZM9.88156 38.5638C9.64177 38.6041 9.39875 38.625 9.15413 38.625C6.76903 38.625 4.82812 36.6841 4.82812 34.299V32.4305C4.82812 30.2884 6.36347 28.4924 8.4798 28.1576L70.357 18.3742L75.573 27.3835L59.4487 30.1275C57.2567 28.399 54.4999 27.3594 51.5 27.3594C46.9439 27.3594 42.943 29.7445 40.6544 33.3253L9.88156 38.5638ZM16.0938 40.7719L19.3125 40.2247V49.8906H16.0938V40.7719ZM11.2656 53.1094H24.1406V59.5469H11.2656V53.1094ZM14.4844 62.7656H20.9219V85.2969H14.4844V62.7656ZM8.04688 88.5156H27.3594V98.1719H8.04688V88.5156Z" fill="white"/>
<path d="M51.5 33.7969C47.9497 33.7969 45.0625 36.6841 45.0625 40.2344C45.0625 43.7847 47.9497 46.6719 51.5 46.6719C55.0503 46.6719 57.9375 43.7847 57.9375 40.2344C57.9375 36.6841 55.0503 33.7969 51.5 33.7969ZM51.5 43.4531C49.7249 43.4531 48.2812 42.0095 48.2812 40.2344C48.2812 38.4592 49.7249 37.0156 51.5 37.0156C53.2751 37.0156 54.7188 38.4592 54.7188 40.2344C54.7188 42.0095 53.2751 43.4531 51.5 43.4531Z" fill="white"/>
<path d="M91.5364 30.5781C93.421 30.5781 94.9531 29.0444 94.9531 27.1598C94.9531 26.3519 94.665 25.5681 94.1436 24.9534L80.8614 9.25552C80.2096 8.48784 79.2601 8.04688 78.2542 8.04688H71.8167L84.8607 30.5781H91.5364ZM78.2542 11.2656C78.3138 11.2656 78.3669 11.2914 78.4055 11.3348L91.7344 27.1598C91.7344 27.2676 91.6442 27.3594 91.5364 27.3594H86.7179L77.3997 11.2656H78.2542Z" fill="white"/>
</svg>
