<svg width="103" height="103" viewBox="0 0 103 103" fill="none" xmlns="http://www.w3.org/2000/svg">
<path d="M58.3398 55.3223C57.2314 55.3223 56.3281 56.2255 56.3281 57.334C56.3281 58.4424 57.2314 59.3457 58.3398 59.3457C59.4483 59.3457 60.3516 58.4424 60.3516 57.334C60.3516 56.2255 59.4483 55.3223 58.3398 55.3223Z" fill="white"/>
<path d="M58.3398 63.3691C57.2314 63.3691 56.3281 64.2724 56.3281 65.3809V73.4277C56.3281 74.5362 57.2314 75.4395 58.3398 75.4395C59.4483 75.4395 60.3516 74.5362 60.3516 73.4277V65.3809C60.3516 64.2724 59.4483 63.3691 58.3398 63.3691Z" fill="white"/>
<path d="M34.1992 55.3223C33.0908 55.3223 32.1875 56.2255 32.1875 57.334C32.1875 58.4424 33.0908 59.3457 34.1992 59.3457C35.3077 59.3457 36.2109 58.4424 36.2109 57.334C36.2109 56.2255 35.3077 55.3223 34.1992 55.3223Z" fill="white"/>
<path d="M34.1992 63.3691C33.0908 63.3691 32.1875 64.2724 32.1875 65.3809V73.4277C32.1875 74.5362 33.0908 75.4395 34.1992 75.4395C35.3077 75.4395 36.2109 74.5362 36.2109 73.4277V65.3809C36.2109 64.2724 35.3077 63.3691 34.1992 63.3691Z" fill="white"/>
<path d="M102.999 84.877C102.999 84.8607 102.997 84.8446 102.997 84.8283C102.982 84.3661 102.805 83.9191 102.501 83.5716C102.495 83.5644 102.49 83.5559 102.484 83.5487L95.7578 76.0758V26.957C95.7578 16.9737 87.6357 8.85156 77.6523 8.85156H68.3984V4.02344H70.4102C71.5212 4.02344 72.4219 3.12279 72.4219 2.01172C72.4219 0.900647 71.5212 0 70.4102 0H62.3633C61.2522 0 60.3516 0.900647 60.3516 2.01172C60.3516 3.12279 61.2522 4.02344 62.3633 4.02344H64.375V8.85156H22.1289C12.1456 8.85156 4.02344 16.9737 4.02344 26.957V37.2222C1.58202 39.0591 0 41.9799 0 45.2637V100.988C0 102.099 0.900647 103 2.01172 103H100.988C102.099 103 103 102.099 103 100.988V84.8945C103 84.8887 102.999 84.8831 102.999 84.877ZM96.4712 82.8828H78.9505L82.5716 78.8594H92.8501L96.4712 82.8828ZM83.6875 74.8359V45.0625H91.7344V74.8359H83.6875ZM8.04688 26.957C8.04688 19.1922 14.3641 12.875 22.1289 12.875H77.6523C85.4172 12.875 91.7344 19.1922 91.7344 26.957V41.0391H83.6875V26.957C83.6875 21.4107 79.1752 16.8984 73.6289 16.8984H62.3633C61.2522 16.8984 60.3516 17.7991 60.3516 18.9102C60.3516 18.9102 60.3516 35.3904 60.3516 35.4075C60.3516 35.0256 56.549 35.3721 56.309 35.3894C56.3414 35.3894 56.3281 20.537 56.3281 18.91C56.3281 17.7989 55.4275 16.8982 54.3164 16.8982H38.2227C37.1116 16.8982 36.2109 17.7989 36.2109 18.91C36.2109 18.91 36.2109 35.3883 36.2109 35.4067C36.1979 35.0739 32.1875 35.1846 32.1875 35.4073C32.1875 35.4071 32.1875 18.91 32.1875 18.91C32.1875 17.7989 31.2869 16.8982 30.1758 16.8982H22.1289C16.5826 16.8982 12.0703 21.4103 12.0703 26.9566C12.0703 29.7596 12.0705 32.5621 12.0924 35.3648C10.712 35.2465 9.41987 35.1272 8.04688 35.4071V26.957ZM16.0938 98.9766H4.02344V51.0977H16.0938V98.9766ZM16.0938 47.0742H4.02344V45.2637C4.02344 41.9359 6.73081 39.2285 10.0586 39.2285C13.3864 39.2285 16.0938 41.9359 16.0938 45.2637V47.0742ZM24.1406 98.9766H20.1172V94.9531H24.1406V98.9766ZM24.1406 45.2637V90.9297H20.1172V45.2637C20.1172 41.9799 18.5352 39.0591 16.0938 37.2222V26.957C16.0938 23.6292 18.8011 20.9219 22.1289 20.9219H28.1641V37.2222C25.7226 39.0591 24.1406 41.9799 24.1406 45.2637ZM40.2344 98.9766H28.1641V51.0977H40.2344V98.9766ZM40.2344 47.0742H28.1641V45.2637C28.1641 41.9359 30.8714 39.2285 34.1992 39.2285C37.527 39.2285 40.2344 41.9359 40.2344 45.2637V47.0742ZM48.2812 98.9766H44.2578V94.9531H48.2812V98.9766ZM48.2812 45.2637V90.9297H44.2578V45.2637C44.2578 41.9799 42.6758 39.0591 40.2344 37.2222V20.9219H52.3047V37.2222C49.8633 39.0591 48.2812 41.9799 48.2812 45.2637ZM64.375 98.9766H52.3047V51.0977H64.375V98.9766ZM64.375 47.0742H52.3047V45.2637C52.3047 41.9359 55.0121 39.2285 58.3398 39.2285C61.6676 39.2285 64.375 41.9359 64.375 45.2637V47.0742ZM72.4219 98.9766H68.3984V94.9531H72.4219V98.9766ZM72.9206 83.5716C72.6323 83.902 72.4396 84.39 72.4251 84.8285C72.4245 84.8448 72.4229 84.8607 72.4227 84.877C72.4227 84.8829 72.4219 84.8885 72.4219 84.8945V90.9297H68.3984V45.2637C68.3984 41.9799 66.8164 39.0591 64.375 37.2222V20.9219H73.6289C76.9567 20.9219 79.6641 23.6292 79.6641 26.957V76.0758L72.9383 83.5489C72.9318 83.5561 72.927 83.5644 72.9206 83.5716ZM98.9766 98.9766H76.4453V92.9414V86.9062H98.9766V98.9766Z" fill="white"/>
<path d="M10.0586 55.3223C8.95014 55.3223 8.04688 56.2255 8.04688 57.334C8.04688 58.4424 8.95014 59.3457 10.0586 59.3457C11.1671 59.3457 12.0703 58.4424 12.0703 57.334C12.0703 56.2255 11.1671 55.3223 10.0586 55.3223Z" fill="white"/>
<path d="M10.0586 63.3691C8.95014 63.3691 8.04688 64.2724 8.04688 65.3809V73.4277C8.04688 74.5362 8.95014 75.4395 10.0586 75.4395C11.1671 75.4395 12.0703 74.5362 12.0703 73.4277V65.3809C12.0703 64.2724 11.1671 63.3691 10.0586 63.3691Z" fill="white"/>
</svg>
