<svg width="103" height="103" viewBox="0 0 103 103" fill="none" xmlns="http://www.w3.org/2000/svg">
<g clip-path="url(#clip0)">
<path d="M101.459 90.9517H90.668V59.4463H101.459C102.31 59.4463 103 58.7563 103 57.9053C103 57.0542 102.31 56.3643 101.459 56.3643H90.5234C89.7981 52.4949 86.3962 49.5574 82.3202 49.5574H74.8226C70.6003 49.5574 67.1026 52.7086 66.5525 56.7831C65.4697 55.8755 64.3137 55.0692 63.0988 54.3698V47.7933C64.7011 46.5964 65.7408 44.6861 65.7408 42.5368C65.7408 39.9939 64.2838 37.7857 62.1621 36.6989V32.1176C62.1621 29.0505 59.972 26.4847 57.0739 25.9017V22.7874H80.3029C84.0317 22.7874 87.0658 19.7541 87.0658 16.0246C87.0658 12.2958 84.0317 9.26176 80.3029 9.26176H70.4667C69.6149 9.26176 68.9249 9.95172 68.9249 10.8028C68.9249 11.6538 69.6149 12.3438 70.4667 12.3438H80.3029C82.3327 12.3438 83.9838 13.9948 83.9838 16.0246C83.9838 18.0544 82.3327 19.7054 80.3029 19.7054H21.9254C19.8956 19.7054 18.2446 18.0544 18.2446 16.0246C18.2446 13.9956 19.8956 12.3438 21.9254 12.3438H64.3011C65.153 12.3438 65.8421 11.6538 65.8421 10.8028C65.8421 9.95172 65.153 9.26176 64.3011 9.26176H57.0739V8.17182C57.0739 4.88628 54.4005 2.21289 51.1149 2.21289C47.8278 2.21289 45.1537 4.88628 45.1537 8.17182V9.26176H21.9246C18.1958 9.26176 15.1618 12.2958 15.1618 16.0246C15.1618 19.7533 18.1958 22.7874 21.9246 22.7874H45.1529V25.9017C42.2547 26.4855 40.0654 29.0505 40.0654 32.1183V36.6989C37.9429 37.7857 36.486 39.9939 36.486 42.5376C36.486 44.6861 37.5256 46.5972 39.1279 47.7933V54.3518C38.1661 54.9073 37.2404 55.5337 36.3555 56.226C35.576 52.4249 32.2056 49.5574 28.1774 49.5574H20.6798C16.603 49.5574 13.2019 52.4956 12.4766 56.3643H1.54101C0.689957 56.3643 0 57.0542 0 57.9053C0 58.7571 0.689957 59.4471 1.54101 59.4471H12.332V90.9525H1.54101C0.689957 90.9525 0 91.6424 0 92.4935C0 93.3445 0.689957 94.0345 1.54101 94.0345H12.4766C13.2019 97.9039 16.6038 100.841 20.6798 100.841H28.1774C32.2048 100.841 35.5752 97.9746 36.3555 94.1736C40.5526 97.4568 45.6857 99.2351 51.1142 99.2351C56.7949 99.2351 62.2533 97.2202 66.5517 93.6172C67.1026 97.6909 70.6003 100.841 74.8226 100.841H82.3194C86.3962 100.841 89.7973 97.9039 90.5226 94.0345H101.458C102.309 94.0345 102.999 93.3445 102.999 92.4935C102.999 91.6424 102.31 90.9517 101.459 90.9517ZM48.2357 8.17182C48.2357 6.58524 49.5268 5.29491 51.1142 5.29491C52.7007 5.29491 53.9911 6.58524 53.9911 8.17182V9.26176H48.2357V8.17182ZM53.9911 22.7874V25.7759H48.2357V22.7874H53.9911ZM46.4063 28.8587H55.8205C57.6169 28.8587 59.0793 30.3204 59.0793 32.1176V35.9807H43.1474V32.1176C43.1474 30.3204 44.6099 28.8587 46.4063 28.8587ZM43.0421 39.0635H59.1846C61.0997 39.0635 62.658 40.6218 62.658 42.5368C62.658 44.4519 61.0997 46.0102 59.1846 46.0102H43.0421C41.1271 46.0102 39.5688 44.4519 39.5688 42.5368C39.5688 40.6218 41.1271 39.0635 43.0421 39.0635ZM42.2107 49.038C42.4834 49.0734 42.76 49.093 43.0421 49.093H59.1846C59.4667 49.093 59.7433 49.0734 60.016 49.038V52.8776C57.2145 51.7593 54.1977 51.1652 51.1142 51.1652C48.0094 51.1652 45.002 51.7467 42.2107 52.8579V49.038ZM15.414 92.4927V57.9053C15.414 55.1368 17.5617 52.8626 20.2783 52.6567V97.742C17.5617 97.5361 15.414 95.2612 15.414 92.4927ZM28.579 97.742V89.391C28.579 88.54 27.889 87.85 27.0372 87.85C26.1861 87.85 25.4962 88.54 25.4962 89.391V97.7585H23.3611V52.6395H25.4962V83.2262C25.4962 84.0773 26.1861 84.7672 27.0372 84.7672C27.889 84.7672 28.579 84.0773 28.579 83.2262V52.656C31.2956 52.8618 33.4433 55.1368 33.4433 57.9053V59.5264V59.5571V90.8432V90.8731V92.4927C33.4433 95.2612 31.2956 97.5361 28.579 97.742ZM51.1142 96.1523C45.6102 96.1523 40.4544 94.0565 36.5253 90.2374V60.1622C37.9539 58.7728 39.5452 57.6122 41.2575 56.6975C41.3479 56.6597 41.4343 56.6134 41.5161 56.5599C44.4441 55.048 47.7123 54.2473 51.1149 54.2473C56.9481 54.2473 62.5134 56.6833 66.4747 60.9511V89.4492C62.5134 93.7162 56.9481 96.1523 51.1142 96.1523ZM69.5567 92.4927V57.9053C69.5567 55.1368 71.7052 52.8618 74.4218 52.6567V97.742C71.7044 97.5361 69.5567 95.2612 69.5567 92.4927ZM77.5038 97.7585V52.6395H79.6389V97.7585H77.5038ZM82.7209 97.742V52.656C85.4375 52.8618 87.586 55.1368 87.586 57.9053V92.4927C87.586 95.2612 85.4375 97.5361 82.7209 97.742Z" fill="white"/>
</g>
<defs>
<clipPath id="clip0">
<rect width="103" height="103" fill="white"/>
</clipPath>
</defs>
</svg>
