<svg width="103" height="103" viewBox="0 0 103 103" fill="none" xmlns="http://www.w3.org/2000/svg">
<path d="M26.2714 10.4561C25.6068 8.99319 24.139 8.04688 22.5312 8.04688C20.9235 8.04688 19.4557 8.99319 18.7911 10.4561L12.875 25.4442V27.3594C12.875 32.6848 17.2058 37.0156 22.5312 37.0156C27.8567 37.0156 32.1875 32.6848 32.1875 27.2805C32.1875 26.0622 31.9606 24.8697 31.5148 23.7351L26.2714 10.4561ZM22.5312 33.7969C18.981 33.7969 16.0938 30.9097 16.0938 27.3594V26.0558L21.7346 11.7581C22.0388 11.1498 23.0913 11.235 23.3102 11.7114L28.5197 24.9147C28.8175 25.6728 28.9688 26.4678 28.9688 27.3594C28.9688 30.9097 26.0815 33.7969 22.5312 33.7969Z" fill="white"/>
<path d="M101.391 53.1094V49.8906C101.391 48.1155 99.947 46.6719 98.1719 46.6719V25.75C98.1719 19.5394 93.1168 14.4844 86.9062 14.4844H78.8594C78.8594 12.7092 77.4158 11.2656 75.6406 11.2656H72.4219C70.6467 11.2656 69.2031 12.7092 69.2031 14.4844H59.5469C59.5469 12.7092 58.1033 11.2656 56.3281 11.2656H53.1094C51.3342 11.2656 49.8906 12.7092 49.8906 14.4844H41.8389C38.6797 6.93158 31.217 1.60938 22.5312 1.60938C10.9952 1.60938 1.60938 10.9952 1.60938 22.5312C1.60938 34.0672 10.9952 43.4531 22.5312 43.4531C31.217 43.4531 38.6797 38.1309 41.8389 30.5781H49.8906C49.8906 32.3533 51.3342 33.7969 53.1094 33.7969H56.3281C58.1033 33.7969 59.5469 32.3533 59.5469 30.5781H69.2031C69.2031 32.3533 70.6467 33.7969 72.4219 33.7969H75.6406C77.4158 33.7969 78.8594 32.3533 78.8594 30.5781H82.0781V46.6719C80.303 46.6719 78.8594 48.1155 78.8594 49.8906V53.1094C78.8594 54.8845 80.303 56.3281 82.0781 56.3281V59.5469H75.6406C75.6406 57.7717 74.197 56.3281 72.4219 56.3281H69.2031C67.428 56.3281 65.9844 57.7717 65.9844 59.5469H57.9375V53.1094H59.5469C62.2088 53.1094 64.375 50.9432 64.375 48.2812C64.375 45.6193 62.2088 43.4531 59.5469 43.4531H57.9375C57.9375 39.9028 55.0503 37.0156 51.5 37.0156C47.9497 37.0156 45.0625 39.9028 45.0625 43.4531H43.4531C40.7912 43.4531 38.625 45.6193 38.625 48.2812C38.625 50.9432 40.7912 53.1094 43.4531 53.1094H45.0625V59.5469H37.0156C37.0156 57.7717 35.572 56.3281 33.7969 56.3281H30.5781C28.803 56.3281 27.3594 57.7717 27.3594 59.5469H19.3125C13.1019 59.5469 8.04688 64.6019 8.04688 70.8125V82.0781C6.27173 82.0781 4.82812 83.5217 4.82812 85.2969V88.5156C4.82812 90.2908 6.27173 91.7344 8.04688 91.7344V101.391H24.1406V91.7344C25.9158 91.7344 27.3594 90.2908 27.3594 88.5156V85.2969C27.3594 83.5217 25.9158 82.0781 24.1406 82.0781V75.6406H27.3594C27.3594 77.4158 28.803 78.8594 30.5781 78.8594H33.7969C35.572 78.8594 37.0156 77.4158 37.0156 75.6406H65.9844C65.9844 77.4158 67.428 78.8594 69.2031 78.8594H72.4219C74.197 78.8594 75.6406 77.4158 75.6406 75.6406H82.0781V82.0781C80.303 82.0781 78.8594 83.5217 78.8594 85.2969V88.5156C78.8594 90.2908 80.303 91.7344 82.0781 91.7344V101.391H98.1719V91.7344C99.947 91.7344 101.391 90.2908 101.391 88.5156V85.2969C101.391 83.5217 99.947 82.0781 98.1719 82.0781V56.3281C99.947 56.3281 101.391 54.8845 101.391 53.1094ZM22.5312 40.2344C12.7704 40.2344 4.82812 32.2921 4.82812 22.5312C4.82812 12.7704 12.7704 4.82812 22.5312 4.82812C32.2921 4.82812 40.2344 12.7704 40.2344 22.5312C40.2344 32.2921 32.2921 40.2344 22.5312 40.2344ZM42.8689 27.3594C43.2375 25.8063 43.4531 24.1953 43.4531 22.5312C43.4531 20.8672 43.2375 19.2562 42.8689 17.7031H49.8906V27.3594H42.8689ZM53.1094 30.5781V14.4844H56.3281L56.3313 30.5781H53.1094ZM59.5469 27.3594V17.7031H69.2031V27.3594H59.5469ZM20.9219 98.1719H11.2656V91.7344H20.9219V98.1719ZM24.1438 88.5156H8.04688V85.2969H24.1406L24.1438 88.5156ZM24.1406 72.4219C22.3655 72.4219 20.9219 73.8655 20.9219 75.6406V82.0781H11.2656V70.8125C11.2656 66.3755 14.8755 62.7656 19.3125 62.7656H27.3594V72.4219H24.1406ZM51.5 40.2344C53.2751 40.2344 54.7188 41.678 54.7188 43.4531H48.2812C48.2812 41.678 49.7249 40.2344 51.5 40.2344ZM41.8438 48.2812C41.8438 47.3929 42.5648 46.6719 43.4531 46.6719H59.5469C60.4352 46.6719 61.1562 47.3929 61.1562 48.2812C61.1562 49.1696 60.4352 49.8906 59.5469 49.8906H43.4531C42.5648 49.8906 41.8438 49.1696 41.8438 48.2812ZM48.2812 53.1094H54.7188V59.5469H48.2812V53.1094ZM30.5781 75.6406V59.5469H33.7969L33.8001 75.6406H30.5781ZM37.0156 72.4219V62.7656H65.9844V72.4219H37.0156ZM72.4219 30.5781V14.4844H75.6406L75.6438 30.5781H72.4219ZM82.0781 27.3594H78.8594V17.7031H86.9062C91.3433 17.7031 94.9531 21.313 94.9531 25.75V46.6719H85.2969V30.5781C85.2969 28.803 83.8533 27.3594 82.0781 27.3594ZM82.0781 49.8906H98.1719L98.1751 53.1094H82.0781V49.8906ZM69.2031 75.6406V59.5469H72.4219L72.4251 75.6406H69.2031ZM75.6406 72.4219V62.7656H82.0781V72.4219H75.6406ZM94.9531 98.1719H85.2969V91.7344H94.9531V98.1719ZM98.1751 88.5156H82.0781V85.2969H98.1719L98.1751 88.5156ZM94.9531 82.0781H85.2969V56.3281H94.9531V82.0781Z" fill="white"/>
<path d="M88.5156 62.7656H91.7344V65.9844H88.5156V62.7656Z" fill="white"/>
<path d="M88.5156 75.6406H91.7344V78.8594H88.5156V75.6406Z" fill="white"/>
<path d="M88.5156 69.2031H91.7344V72.4219H88.5156V69.2031Z" fill="white"/>
<path d="M53.1094 65.9844H56.3281V69.2031H53.1094V65.9844Z" fill="white"/>
<path d="M40.2344 65.9844H43.4531V69.2031H40.2344V65.9844Z" fill="white"/>
<path d="M46.6719 65.9844H49.8906V69.2031H46.6719V65.9844Z" fill="white"/>
<path d="M88.5156 40.2344H91.7344V43.4531H88.5156V40.2344Z" fill="white"/>
<path d="M88.5156 27.3594H91.7344V30.5781H88.5156V27.3594Z" fill="white"/>
<path d="M88.5156 33.7969H91.7344V37.0156H88.5156V33.7969Z" fill="white"/>
</svg>
