<svg width="15" height="13" viewBox="0 0 15 13" fill="none" xmlns="http://www.w3.org/2000/svg">
<path d="M14.1567 5.32372L14.1801 5.32885H4.14281L7.29818 2.16653C7.45269 2.01214 7.53744 1.80299 7.53744 1.58348C7.53744 1.36397 7.45269 1.15629 7.29818 1.00153L6.8072 0.51031C6.65281 0.355919 6.44708 0.270554 6.22769 0.270554C6.00818 0.270554 5.80232 0.35531 5.64793 0.5097L0.239028 5.91811C0.0840276 6.07311 -0.000728559 6.27958 -0.000118803 6.49921C-0.000728559 6.72007 0.0840276 6.92665 0.239028 7.08141L5.64793 12.4903C5.80232 12.6446 6.00805 12.7295 6.22769 12.7295C6.44708 12.7295 6.65281 12.6445 6.8072 12.4903L7.29818 11.9991C7.45269 11.8449 7.53744 11.6391 7.53744 11.4196C7.53744 11.2002 7.45269 11.0052 7.29818 10.8509L4.1072 7.67092H14.1679C14.62 7.67092 14.9999 7.28129 14.9999 6.82946V6.1347C14.9999 5.68287 14.6088 5.32372 14.1567 5.32372Z" fill="white"/>
</svg>
