<svg width="15" height="13" viewBox="0 0 15 13" fill="none" xmlns="http://www.w3.org/2000/svg">
<path d="M0.843286 7.67628L0.819871 7.67115L10.8572 7.67115L7.70182 10.8335C7.54731 10.9879 7.46256 11.197 7.46256 11.4165C7.46256 11.636 7.54731 11.8437 7.70182 11.9985L8.1928 12.4897C8.34719 12.6441 8.55292 12.7294 8.77231 12.7294C8.99182 12.7294 9.19768 12.6447 9.35207 12.4903L14.761 7.08189C14.916 6.92689 15.0007 6.72042 15.0001 6.50079C15.0007 6.27993 14.916 6.07335 14.761 5.91859L9.35207 0.50969C9.19768 0.355422 8.99195 0.270544 8.77231 0.270544C8.55292 0.270544 8.34719 0.355544 8.1928 0.50969L7.70182 1.00091C7.54731 1.15506 7.46256 1.36091 7.46256 1.58042C7.46256 1.79981 7.54731 1.99481 7.70182 2.14908L10.8928 5.32908L0.832066 5.32908C0.379992 5.32908 0.000114441 5.71871 0.000114441 6.17054V6.8653C0.000114441 7.31713 0.391212 7.67628 0.843286 7.67628Z" fill="white"/>
</svg>
