<svg width="28" height="28" viewBox="0 0 28 28" fill="none" xmlns="http://www.w3.org/2000/svg">
<circle cx="14" cy="14" r="14" fill="white" fill-opacity="0.9"/>
<g clip-path="url(#clip0)">
<path d="M23.8216 18.4728C23.7679 18.3828 23.4353 17.6602 21.8352 16.1751C20.1601 14.62 20.3851 14.8725 22.4028 12.1836C23.6316 10.546 24.1229 9.54588 23.9691 9.11835C23.8229 8.71082 22.919 8.81833 22.919 8.81833L19.9138 8.83583C19.9138 8.83583 19.6913 8.80583 19.525 8.90458C19.3638 9.00209 19.26 9.22711 19.26 9.22711C19.26 9.22711 18.7837 10.4947 18.1487 11.5723C16.8098 13.8462 16.2735 13.9662 16.0548 13.825C15.546 13.4962 15.6735 12.5024 15.6735 11.7973C15.6735 9.59339 16.0073 8.67457 15.0222 8.43705C14.6947 8.35829 14.4547 8.30579 13.6183 8.29704C12.5458 8.28579 11.6369 8.30079 11.1232 8.55206C10.7806 8.71957 10.5169 9.09335 10.6781 9.1146C10.8769 9.14085 11.3269 9.23586 11.5657 9.56088C11.8745 9.97966 11.8632 10.9222 11.8632 10.9222C11.8632 10.9222 12.0407 13.5162 11.4494 13.8387C11.0432 14.06 10.4869 13.6087 9.29302 11.5448C8.68173 10.4885 8.21919 9.31962 8.21919 9.31962C8.21919 9.31962 8.13044 9.1021 7.97167 8.98584C7.77916 8.84458 7.50914 8.79958 7.50914 8.79958L4.65143 8.81708C4.65143 8.81708 4.22264 8.82958 4.06513 9.01584C3.92512 9.18211 4.05388 9.52463 4.05388 9.52463C4.05388 9.52463 6.29155 14.7588 8.82424 17.3977C11.1482 19.8166 13.7859 19.6579 13.7859 19.6579H14.9809C14.9809 19.6579 15.3422 19.6179 15.526 19.4191C15.696 19.2366 15.6898 18.8941 15.6898 18.8941C15.6898 18.8941 15.666 17.2902 16.4111 17.0539C17.1449 16.8214 18.0874 18.6041 19.0863 19.2904C19.8413 19.8091 20.4151 19.6954 20.4151 19.6954L23.0866 19.6579C23.0866 19.6579 24.4842 19.5716 23.8216 18.4728Z" fill="#1F7AA0"/>
</g>
<defs>
<clipPath id="clip0">
<rect x="4" y="4" width="20" height="20" fill="white"/>
</clipPath>
</defs>
</svg>
