<svg width="28" height="28" viewBox="0 0 28 28" fill="none" xmlns="http://www.w3.org/2000/svg">
<circle cx="14" cy="14" r="14" fill="white" fill-opacity="0.9"/>
<mask id="mask0" mask-type="alpha" maskUnits="userSpaceOnUse" x="4" y="7" width="20" height="14">
<path d="M4.83331 7.3335H23.1666V20.0871H4.83331V7.3335Z" fill="#1F7AA0"/>
</mask>
<g mask="url(#mask0)">
<path fill-rule="evenodd" clip-rule="evenodd" d="M12.1843 16.444V11.0894C13.7686 11.9841 15.2954 12.8462 16.9173 13.7622C15.3258 14.6639 13.7913 15.5333 12.1843 16.444ZM22.87 9.87246C22.6525 8.44499 21.9081 7.74549 20.4575 7.61761C16.1565 7.23849 11.8532 7.23945 7.5521 7.61652C6.07721 7.74576 5.3295 8.46785 5.11487 9.92832C4.74467 12.4469 4.7393 14.9687 5.10014 17.4892C5.33171 19.1063 6.06083 19.7599 7.70988 19.9429C9.79122 20.1741 11.8778 20.0261 13.9615 20.0871C16.1139 20.0308 18.2702 20.1817 20.4188 19.9306C21.9083 19.7565 22.6507 19.0957 22.8733 17.6317C23.266 15.047 23.2639 12.4567 22.87 9.87246Z" fill="#1F7AA0"/>
</g>
</svg>
